{
	"asset":{
		"generator":"Khronos glTF Blender I/O v4.3.47",
		"version":"2.0"
	},
	"scene":0,
	"scenes":[
		{
			"name":"Scene",
			"nodes":[
				0,
				1,
				2,
				3,
				5,
				7
			]
		}
	],
	"nodes":[
		{
			"mesh":0,
			"name":"long sleeve blazer",
			"translation":[
				-0.008406542241573334,
				0.034830689430236816,
				0.052021779119968414
			]
		},
		{
			"mesh":1,
			"name":"long sleeve blazer.002",
			"translation":[
				-0.008683346211910248,
				0.30012667179107666,
				0.10321302711963654
			]
		},
		{
			"mesh":2,
			"name":"long sleeve blazer.003",
			"translation":[
				-0.007274888455867767,
				0.14734864234924316,
				-0.06499925255775452
			]
		},
		{
			"mesh":3,
			"name":"long sleeve blazer.004",
			"translation":[
				-0.00868358463048935,
				-0.07734179496765137,
				0.08319985121488571
			]
		},
		{
			"mesh":4,
			"name":"Cylinder.004",
			"translation":[
				-4.885345697402954e-05,
				0,
				0.00042542070150375366
			]
		},
		{
			"children":[
				4
			],
			"mesh":5,
			"name":"Circle.004",
			"translation":[
				0.001592494547367096,
				-0.14955544471740723,
				-0.11253278702497482
			]
		},
		{
			"mesh":6,
			"name":"Cylinder.002",
			"translation":[
				-5.338340997695923e-05,
				-2.777576446533203e-05,
				0.00042419135570526123
			]
		},
		{
			"children":[
				6
			],
			"mesh":7,
			"name":"Circle.005",
			"translation":[
				0.0018073096871376038,
				-0.03933262825012207,
				-0.1115335077047348
			]
		}
	],
	"materials":[
		{
			"doubleSided":true,
			"name":"fabric_texture",
			"pbrMetallicRoughness":{
				"baseColorFactor":[
					0.6884204745292664,
					0.6884204745292664,
					0.6884204745292664,
					1
				],
				"metallicFactor":0,
				"roughnessFactor":0.5
			}
		},
		{
			"doubleSided":true,
			"name":"Material.002",
			"pbrMetallicRoughness":{
				"metallicFactor":0,
				"roughnessFactor":0.5
			}
		}
	],
	"meshes":[
		{
			"name":"Plane.007",
			"primitives":[
				{
					"attributes":{
						"POSITION":0,
						"NORMAL":1,
						"TEXCOORD_0":2
					},
					"indices":3,
					"material":0
				}
			]
		},
		{
			"name":"Plane.010",
			"primitives":[
				{
					"attributes":{
						"POSITION":4,
						"NORMAL":5,
						"TEXCOORD_0":6
					},
					"indices":7,
					"material":0
				}
			]
		},
		{
			"name":"Plane.012",
			"primitives":[
				{
					"attributes":{
						"POSITION":8,
						"NORMAL":9,
						"TEXCOORD_0":10
					},
					"indices":11,
					"material":0
				}
			]
		},
		{
			"name":"Plane.013",
			"primitives":[
				{
					"attributes":{
						"POSITION":12,
						"NORMAL":13,
						"TEXCOORD_0":14
					},
					"indices":15,
					"material":0
				}
			]
		},
		{
			"name":"Cylinder.004",
			"primitives":[
				{
					"attributes":{
						"POSITION":16,
						"NORMAL":17,
						"TEXCOORD_0":18
					},
					"indices":19
				}
			]
		},
		{
			"name":"Circle.004",
			"primitives":[
				{
					"attributes":{
						"POSITION":20,
						"NORMAL":21,
						"TEXCOORD_0":22
					},
					"indices":23,
					"material":1
				}
			]
		},
		{
			"name":"Cylinder.002",
			"primitives":[
				{
					"attributes":{
						"POSITION":24,
						"NORMAL":25,
						"TEXCOORD_0":26
					},
					"indices":27
				}
			]
		},
		{
			"name":"Circle.005",
			"primitives":[
				{
					"attributes":{
						"POSITION":28,
						"NORMAL":29,
						"TEXCOORD_0":30
					},
					"indices":31,
					"material":1
				}
			]
		}
	],
	"accessors":[
		{
			"bufferView":0,
			"componentType":5126,
			"count":7706,
			"max":[
				0.21147799491882324,
				0.2765030860900879,
				0.11200296133756638
			],
			"min":[
				-0.21203184127807617,
				-0.3440951108932495,
				-0.16715630888938904
			],
			"type":"VEC3"
		},
		{
			"bufferView":1,
			"componentType":5126,
			"count":7706,
			"type":"VEC3"
		},
		{
			"bufferView":2,
			"componentType":5126,
			"count":7706,
			"type":"VEC2"
		},
		{
			"bufferView":3,
			"componentType":5123,
			"count":44652,
			"type":"SCALAR"
		},
		{
			"bufferView":4,
			"componentType":5126,
			"count":766,
			"max":[
				0.08913612365722656,
				0.011207103729248047,
				0.032136693596839905
			],
			"min":[
				-0.08913648128509521,
				-0.017372513189911842,
				-0.04448673129081726
			],
			"type":"VEC3"
		},
		{
			"bufferView":5,
			"componentType":5126,
			"count":766,
			"type":"VEC3"
		},
		{
			"bufferView":6,
			"componentType":5126,
			"count":766,
			"type":"VEC2"
		},
		{
			"bufferView":7,
			"componentType":5123,
			"count":3432,
			"type":"SCALAR"
		},
		{
			"bufferView":8,
			"componentType":5126,
			"count":931,
			"max":[
				0.09713258594274521,
				0.13309608399868011,
				0.08916622400283813
			],
			"min":[
				-0.09994972497224808,
				-0.16895616054534912,
				-0.04979941248893738
			],
			"type":"VEC3"
		},
		{
			"bufferView":9,
			"componentType":5126,
			"count":931,
			"type":"VEC3"
		},
		{
			"bufferView":10,
			"componentType":5126,
			"count":931,
			"type":"VEC2"
		},
		{
			"bufferView":11,
			"componentType":5123,
			"count":3720,
			"type":"SCALAR"
		},
		{
			"bufferView":12,
			"componentType":5126,
			"count":9384,
			"max":[
				0.3072315454483032,
				0.31480085849761963,
				0.06019168347120285
			],
			"min":[
				-0.30723142623901367,
				-0.21452486515045166,
				-0.07143799215555191
			],
			"type":"VEC3"
		},
		{
			"bufferView":13,
			"componentType":5126,
			"count":9384,
			"type":"VEC3"
		},
		{
			"bufferView":14,
			"componentType":5126,
			"count":9384,
			"type":"VEC2"
		},
		{
			"bufferView":15,
			"componentType":5123,
			"count":55488,
			"type":"SCALAR"
		},
		{
			"bufferView":16,
			"componentType":5126,
			"count":768,
			"max":[
				0.0021529197692871094,
				0.0019282102584838867,
				0.0016775429248809814
			],
			"min":[
				-0.002154827117919922,
				-0.0019255876541137695,
				-0.0016775280237197876
			],
			"type":"VEC3"
		},
		{
			"bufferView":17,
			"componentType":5126,
			"count":768,
			"type":"VEC3"
		},
		{
			"bufferView":18,
			"componentType":5126,
			"count":768,
			"type":"VEC2"
		},
		{
			"bufferView":19,
			"componentType":5123,
			"count":1488,
			"type":"SCALAR"
		},
		{
			"bufferView":20,
			"componentType":5126,
			"count":28784,
			"max":[
				0.007778650149703026,
				0.007854846306145191,
				0.0014287976082414389
			],
			"min":[
				-0.007835918106138706,
				-0.007855323143303394,
				-0.0011706716613844037
			],
			"type":"VEC3"
		},
		{
			"bufferView":21,
			"componentType":5126,
			"count":28784,
			"type":"VEC3"
		},
		{
			"bufferView":22,
			"componentType":5126,
			"count":28784,
			"type":"VEC2"
		},
		{
			"bufferView":23,
			"componentType":5123,
			"count":43872,
			"type":"SCALAR"
		},
		{
			"bufferView":24,
			"componentType":5126,
			"count":768,
			"max":[
				0.0021630525588989258,
				0.0020263195037841797,
				0.0017712637782096863
			],
			"min":[
				-0.0021611452102661133,
				-0.0020270347595214844,
				-0.0017712786793708801
			],
			"type":"VEC3"
		},
		{
			"bufferView":25,
			"componentType":5126,
			"count":768,
			"type":"VEC3"
		},
		{
			"bufferView":26,
			"componentType":5126,
			"count":768,
			"type":"VEC2"
		},
		{
			"bufferView":27,
			"componentType":5123,
			"count":1488,
			"type":"SCALAR"
		},
		{
			"bufferView":28,
			"componentType":5126,
			"count":28784,
			"max":[
				0.00777176208794117,
				0.007822204381227493,
				0.0015861931024119258
			],
			"min":[
				-0.007831308990716934,
				-0.00785769708454609,
				-0.0013423529453575611
			],
			"type":"VEC3"
		},
		{
			"bufferView":29,
			"componentType":5126,
			"count":28784,
			"type":"VEC3"
		},
		{
			"bufferView":30,
			"componentType":5126,
			"count":28784,
			"type":"VEC2"
		},
		{
			"bufferView":31,
			"componentType":5123,
			"count":43872,
			"type":"SCALAR"
		}
	],
	"bufferViews":[
		{
			"buffer":0,
			"byteLength":92472,
			"byteOffset":0,
			"target":34962
		},
		{
			"buffer":0,
			"byteLength":92472,
			"byteOffset":92472,
			"target":34962
		},
		{
			"buffer":0,
			"byteLength":61648,
			"byteOffset":184944,
			"target":34962
		},
		{
			"buffer":0,
			"byteLength":89304,
			"byteOffset":246592,
			"target":34963
		},
		{
			"buffer":0,
			"byteLength":9192,
			"byteOffset":335896,
			"target":34962
		},
		{
			"buffer":0,
			"byteLength":9192,
			"byteOffset":345088,
			"target":34962
		},
		{
			"buffer":0,
			"byteLength":6128,
			"byteOffset":354280,
			"target":34962
		},
		{
			"buffer":0,
			"byteLength":6864,
			"byteOffset":360408,
			"target":34963
		},
		{
			"buffer":0,
			"byteLength":11172,
			"byteOffset":367272,
			"target":34962
		},
		{
			"buffer":0,
			"byteLength":11172,
			"byteOffset":378444,
			"target":34962
		},
		{
			"buffer":0,
			"byteLength":7448,
			"byteOffset":389616,
			"target":34962
		},
		{
			"buffer":0,
			"byteLength":7440,
			"byteOffset":397064,
			"target":34963
		},
		{
			"buffer":0,
			"byteLength":112608,
			"byteOffset":404504,
			"target":34962
		},
		{
			"buffer":0,
			"byteLength":112608,
			"byteOffset":517112,
			"target":34962
		},
		{
			"buffer":0,
			"byteLength":75072,
			"byteOffset":629720,
			"target":34962
		},
		{
			"buffer":0,
			"byteLength":110976,
			"byteOffset":704792,
			"target":34963
		},
		{
			"buffer":0,
			"byteLength":9216,
			"byteOffset":815768,
			"target":34962
		},
		{
			"buffer":0,
			"byteLength":9216,
			"byteOffset":824984,
			"target":34962
		},
		{
			"buffer":0,
			"byteLength":6144,
			"byteOffset":834200,
			"target":34962
		},
		{
			"buffer":0,
			"byteLength":2976,
			"byteOffset":840344,
			"target":34963
		},
		{
			"buffer":0,
			"byteLength":345408,
			"byteOffset":843320,
			"target":34962
		},
		{
			"buffer":0,
			"byteLength":345408,
			"byteOffset":1188728,
			"target":34962
		},
		{
			"buffer":0,
			"byteLength":230272,
			"byteOffset":1534136,
			"target":34962
		},
		{
			"buffer":0,
			"byteLength":87744,
			"byteOffset":1764408,
			"target":34963
		},
		{
			"buffer":0,
			"byteLength":9216,
			"byteOffset":1852152,
			"target":34962
		},
		{
			"buffer":0,
			"byteLength":9216,
			"byteOffset":1861368,
			"target":34962
		},
		{
			"buffer":0,
			"byteLength":6144,
			"byteOffset":1870584,
			"target":34962
		},
		{
			"buffer":0,
			"byteLength":2976,
			"byteOffset":1876728,
			"target":34963
		},
		{
			"buffer":0,
			"byteLength":345408,
			"byteOffset":1879704,
			"target":34962
		},
		{
			"buffer":0,
			"byteLength":345408,
			"byteOffset":2225112,
			"target":34962
		},
		{
			"buffer":0,
			"byteLength":230272,
			"byteOffset":2570520,
			"target":34962
		},
		{
			"buffer":0,
			"byteLength":87744,
			"byteOffset":2800792,
			"target":34963
		}
	],
	"buffers":[
		{
			"byteLength":2888536,
			"uri":"blazer.bin"
		}
	]
}
